<svg xmlns="http://www.w3.org/2000/svg" xmlns:xlink="http://www.w3.org/1999/xlink" viewBox="0 0 364.2 334.86"><defs><style>.cls-1{fill:url(#radial-gradient);}.cls-2{fill:#302e32;}.cls-3{fill:none;}.cls-4{fill:url(#White_Black);}.cls-5{fill:url(#White_Black-2);}</style><radialGradient id="radial-gradient" cx="169.64" cy="167.43" r="146.82" gradientUnits="userSpaceOnUse"><stop offset="0" stop-color="#e03826"/><stop offset="0.1" stop-color="#b83c2b"/><stop offset="0.21" stop-color="#c34433"/><stop offset="0.3" stop-color="#d7533f"/><stop offset="0.36" stop-color="#e05944"/><stop offset="0.45" stop-color="#e86855"/><stop offset="0.57" stop-color="#f17a68"/><stop offset="0.65" stop-color="#f4816f"/><stop offset="0.67" stop-color="#f37e6c"/><stop offset="0.77" stop-color="#ec6c59"/><stop offset="0.88" stop-color="#e8624e"/><stop offset="1" stop-color="#e75e4a"/><stop offset="1" stop-color="#e6e7e8"/></radialGradient><linearGradient id="White_Black" x1="32.38" y1="184.93" x2="171.74" y2="184.93" gradientUnits="userSpaceOnUse"><stop offset="0" stop-color="#fff"/><stop offset="1" stop-color="#231f20"/></linearGradient><linearGradient id="White_Black-2" x1="300.06" y1="125.99" x2="207.19" y2="120.95" xlink:href="#White_Black"/></defs><title>Asset 1</title><g id="Layer_2" data-name="Layer 2"><g id="Logo2"><path class="cls-1" d="M316.45,167.43a146.15,146.15,0,0,1-17.72,70v0c-.53,1-1.07,1.94-1.62,2.9a575.83,575.83,0,0,0-183.7,17.31,898.27,898.27,0,0,1,78.47-96.31q10-10.67,19.95-20.61l1.57-1.57q17.6-17.52,34.87-32.92c11.5-10.3,22.84-19.91,33.9-28.87q-4.37-5.26-9.28-10.13a314.54,314.54,0,0,1-84.69,13.83,315.08,315.08,0,0,1-87.58-10.21l-41.24,40.5,112.37,3.91A675.15,675.15,0,0,0,58.37,258.51,145.86,145.86,0,0,0,99.31,294.2a470.71,470.71,0,0,1,163.51-25.15h.25q3.85.09,7.6.24c1.51.06,3,.13,4.48.21l-.33.34A146.36,146.36,0,0,1,177.32,314q-3.81.19-7.68.2A146.82,146.82,0,1,1,316.45,167.43Z"/><path class="cls-2" d="M323.84,242.76l-14.28-1.3h0l-12.33-1.12c.52-1,1-1.94,1.51-2.91v0a149.06,149.06,0,0,0,6.09-121.47q-1.87-4.78-4.1-9.44a141,141,0,0,0-18.56-29.14q-4.37-5.26-9.28-10.13c-.26-.27-.52-.52-.78-.78C221.16,16.74,137.66,11.56,80.59,58.23a141.75,141.75,0,0,0-48.21,77.31,148.22,148.22,0,0,0,4,82.62A140,140,0,0,0,49,245a138.14,138.14,0,0,0,9.34,13.48A145.86,145.86,0,0,0,99.31,294.2c23.39,13.72,50.54,21,78,19.68a131.87,131.87,0,0,0,19.17-2.35c35.09-7,59.63-26.86,73.94-42l.25-.26c1.51.06,3,.13,4.48.21,11.09.55,21.35,1.45,30.69,2.53l-.08.09c-73,81.66-196.59,81.37-261.8,12-.3-.31-.59-.62-.88-.94a157.37,157.37,0,0,1-25.57-37.42,174.22,174.22,0,0,1-14-111,167.44,167.44,0,0,1,41.1-80.47c59.57-64.54,159.07-71.71,227.15-20.54A166.22,166.22,0,0,1,298,58.37q1.67,1.93,3.27,3.93C341.06,111.6,351.33,181.58,323.84,242.76Z"/><path class="cls-3" d="M270.67,269.3l-.25.26c-14.31,15.11-38.85,35-73.94,42a131.87,131.87,0,0,1-19.17,2.35c-27.46,1.31-54.61-6-78-19.68a470.71,470.71,0,0,1,163.51-25.15h.25Q266.92,269.15,270.67,269.3Z"/><path class="cls-3" d="M95.64,137.26q-22.47,29.18-45.27,61.05-7.11,10-14,19.85a148.22,148.22,0,0,1-4-82.62Z"/><path class="cls-4" d="M171.74,115.26A675.15,675.15,0,0,0,58.37,258.51,138.14,138.14,0,0,1,49,245,140,140,0,0,1,36.4,218.16q6.85-9.87,14-19.85,22.76-31.89,45.27-61.05l-63.26-1.72,27-24.19Z"/><path class="cls-3" d="M272.88,67.23a314.54,314.54,0,0,1-84.69,13.83,315.08,315.08,0,0,1-87.58-10.21l-41.24,40.5-27,24.19A141.75,141.75,0,0,1,80.59,58.23c57.07-46.67,140.57-41.49,191.51,8.22C272.36,66.71,272.62,67,272.88,67.23Z"/><path class="cls-3" d="M300.72,106.5l-52.46-.27c11.5-10.3,22.84-19.91,33.9-28.87A141,141,0,0,1,300.72,106.5Z"/><path class="cls-3" d="M298.73,237.41v0c-.49,1-1,1.94-1.51,2.91h-.11a575.83,575.83,0,0,0-183.7,17.31,898.27,898.27,0,0,1,78.47-96.31q10-10.67,19.95-20.61c23.75.63,48.46,1.64,72.21,2.28,6.73-8.37,14.06-18.69,20.79-27.06A149.06,149.06,0,0,1,298.73,237.41Z"/><path class="cls-5" d="M304.82,115.94c-6.73,8.37-14.06,18.69-20.79,27.06-23.75-.64-48.46-1.65-72.21-2.28l1.57-1.57q17.6-17.52,34.87-32.92l52.46.27Q303,111.15,304.82,115.94Z"/><path class="cls-3" d="M364.2,247.92c-4.32,10.08-10.8,29.52-10.8,29.52-2.54-1.45-25.47-3.57-47.64-5.31l.08-.09c-9.34-1.08-19.6-2-30.69-2.53-1.48-.08-3-.15-4.48-.21q-3.75-.15-7.6-.24h-.25A470.71,470.71,0,0,0,99.31,294.2a145.86,145.86,0,0,1-40.94-35.69A675.15,675.15,0,0,1,171.74,115.26L59.37,111.35l41.24-40.5a315.08,315.08,0,0,0,87.58,10.21,314.54,314.54,0,0,0,84.69-13.83q4.92,4.86,9.28,10.13c-11.06,9-22.4,18.57-33.9,28.87s-23.14,21.24-34.87,32.92l-1.57,1.57q-9.94,9.94-19.95,20.61a898.27,898.27,0,0,0-78.47,96.31,575.83,575.83,0,0,1,183.7-17.31h.11l12.33,1.12h0Z"/><path class="cls-3" d="M305.76,272.13c-11.51-.91-22.81-1.71-30.94-2.28l-4.4-.29-7.35-.5"/><path class="cls-3" d="M262.82,269.05h-.13"/></g></g></svg>